<?xml version="1.0" encoding="utf-8"?>
<!-- Generator: Adobe Illustrator 16.0.0, SVG Export Plug-In . SVG Version: 6.00 Build 0)  -->
<!DOCTYPE svg PUBLIC "-//W3C//DTD SVG 1.1//EN" "http://www.w3.org/Graphics/SVG/1.1/DTD/svg11.dtd">
<svg version="1.1" id="svg2" xmlns:svg="http://www.w3.org/2000/svg"
	 xmlns="http://www.w3.org/2000/svg" xmlns:xlink="http://www.w3.org/1999/xlink" x="0px" y="0px" width="1159.324px"
	 height="856.537px" viewBox="0 0 1159.324 856.537" enable-background="new 0 0 1159.324 856.537" xml:space="preserve">
<g id="Land">
	<rect id="rect8" x="0.744" y="1.076" fill="#E0E0E0" width="1159.324" height="856.537"/>
	<path id="path10" fill="#C6ECFF" d="M431.132,857.592l0.175-2.44l2.04-1.451l-0.447-1.778l-3.854-4.809l-0.09-1.403l1.323-0.613
		l2.621,4.445l1.798,1.74l1.021-6.574l-2.862-3.732l0.778-1.201l1.448,0.263l3.372-3.269l2.81,2.604l2.809,0.126l1.012-1.715
		l4.248,2.967l2.361,3.131l-3.773-1.854l-1.379,0.563l3.605,5.734l3.318,7.377l1.445,1.893l13.896,0.002l-2.471-3.085l-7.988-5.622
		l-2.495-2.38l-0.761-4.058l-2.54-1.566l-5.771-6.234l-2.415,0.413l-0.276-3.22l-4.5-6.897l1.859-4.259
		c0.511-3.081,0.556-3.183,0.556-3.183l-8.587-6.561l-2.3-0.69l5.563,7.339l0.135,4.132l-2.326,0.628l-5.34-1.892l-7.646-4.145
		l-5.226-4.758l-2.737-4.36l-10.822-5.51l-2.567-1.039l-6.324-1.089l-9.569-3.183l-8.042-2.504l-3.703-1.479l-7.335-4.332
		l-2.37,1.664l-3.562,5.438l-2.8,2.252l-1.046,3.582l-4.008,5.209l-2.755,6.388l-7.192,28.641l-3.363,8.741l-0.59,4.145
		l-0.029,3.423L431.132,857.592z"/>
	<path id="path12" fill="#C6ECFF" d="M49.483,634.26l0.036,2.504l3.462,1.566l1.619,2.542l0.876-0.802l-0.572-2.104l-3.883-1.777
		l-0.581-1.692L49.483,634.26z M68.052,632.52l0.34-1.141l-0.841-0.337l-0.76,0.601l-0.456,0.928l-0.886,1.126l-0.135,0.828
		l1.396-0.375L68.052,632.52z M74.376,626.972l-0.241,0.928l0.823,0.965l0.6,1.274l-0.027,0.729l-0.475,1.764l0.716,0.84
		l1.109-1.627l0.778-0.915l0.251-1.139l-0.492-1.266l-1.673-0.891L74.376,626.972z M36.566,626.884l-1.116,2.542l0.285,1.04
		l3.291,2.466l1.78,0.052l0.555-1.115l-1.709-6.35l-2.209,0.151L36.566,626.884z M26.869,620.836l1.888-0.15l0.697-2.153
		l-1.583-3.443l-0.948,0.074l-0.446,0.915l0.681,1.777l-0.993,1.717L26.869,620.836z M114.021,618.631l0.241-0.926l-9.231-3.795
		l-0.599-1.152l1.333-2.328l-3.972-0.739l-0.447,0.915l1.932,2.016l0.761,2.604l5.081,2.218L114.021,618.631z M123.273,857.608
		L0.744,857.613L0.689,627.357l7.369-2.391l6.835-0.438l0.858-0.701l-0.492-1.139l-9.473,0.875l-2.612-0.486l-2.424,2.516
		l-0.02-24.895l0.807,1.088l2.228-0.676h3.569l2.684,5.948l4.052,1.453l2.826,0.39l2.435-0.554l3.247,0.604l2.925,0.487
		l12.595,0.562l2.254,2.129l3.443,0.815l3.596,2.778l3.042,0.302l3.767,0.411l5,5.312l-0.116,3.854l-2.139,1.229l-0.312,3.506
		l1.699,3.146l0.912,8.389l5.206,1.491l4.92-3.27l2.039,2.128l6.458-1.978l9.025-6.75l0.876-2.992l-3.568-1.354l-2.174,1.703
		l-2.12,2.956l-2.684,0.964l-2.54,2.943l-2.675,0.551l-2.021-1.151l-2.63,0.137l-2.299,3.132l-2.496-0.688l-0.224-3.419
		l-0.939-7.351l0.922-6.374l3.104-1.767l3.005-0.312l2.03,0.564l5.573,3.255l2.934,0.188l2.066,1.104L88,630.253l2.611,1.489
		l3.186-1.615l11.208-5.171l4.114-3.896l3.712-1.34l-7.406-1.766l-2.057-1.203l-5.107-1.502l3.622-1.428l-3.523-5.172l-0.958-3.117
		l-2.245-2.242l-8.022-2.092l-3.318-1.539l-2.299-4.196l3.166,3.182l10.108,3.093l3.095,1.954l3.729,5.059l4.062-2.141l-0.019-6.199
		l6.727-6.812l-2.549-2.34l3.032-2.906l4.776,5.209l3.416,1.755l2.532-0.239l5.562,3.582l2.361,1.729l7.219,1.365l4.268,4.87
		l3.158,2.618l3.712,2.154l3.272,2.992l3.086,3.469l8.256,9.279l3.614,5.072l2.415-0.126l5.313,5.235l2.199,2.865l1.771,3.145
		l2.12,5.549l-0.17,5.146l-2.531,0.337l-2.872,4.133l2.21,3.067l2.736-0.425l2.271,1.214l3.649,0.641l1.314,4.583l2.791,4.119
		l5.563-0.227l-1.352,2.843l-4.008,0.59l-3.112,2.166l-2.835-2.992l-5.01-0.39l-4.4-0.337l-3.524-1.254l-2.058,1.903l-2.81,2.479
		l2.075,3.095l-1.055,0.862l-0.977,1.003l-4.643-2.116l-0.465,1.427l0.481,1.165l6.809,3.206l2.736,2.979l3.132,0.213l2.379,3.994
		l-1.343,2.543l0.27,1.453l1.852,1.09l1.879,0.177l0.636,2.805l-0.563,1.215l-2.514,0.125l-1.198,1.302l-1.146-0.251l-1.368-2.829
		l-1.44-0.764l-1.905,0.45l-1.743,2.217l-1.789,0.15l-4.76-1.816l-11.959,3.744l-1.663-0.363l-1.243,2.854l-2.755,1.141
		l-2.397-0.588l-1.682,0.462l-6.521-2.479l-1.79,0.363l-1.628,1.804l-0.599,2.141l-3.498,1.441l-1.779-0.051l-4.731-2.73
		l-1.262,0.164l-0.447,0.927l1.002,1.577l-0.106,3.293l0.805,1.053l1.352,0.363l1.484-0.676l1.521,1.59l1.091,0.112l1.619,0.175
		l0.438,2.906l-1.226,2.13l-0.697,2.354l0.357,1.764l-0.305,3.194l-2.585,2.19l-24.24-11.07l-3.883,7.215l-0.09,2.98l4.204,2.717
		l0.733,6.824l1.771,4.271l-1.063,3.294l2.29,3.782l1.689,6.146l-2.335,4.672l5.501,7.913l1.889,3.046l-2.836,0.75l1.888,6.349
		l1.476,2.931l0.537,2.808l2.229,2.34l-2.22,0.764l0.277,4.646l0.08,4.032l-0.519,3.395l4.508,2.504l0.733,3.331l3.141-0.412
		l11.413,2.003l-2.801,2.705l-3.201,2.366l-2.81-1.039l-2.2,1.203l5.152,5.422l3.336-0.201l-0.231,4.121l-3.186-1.553l-1.493,4.395
		l-2.245,1.894l0.215,3.305l3.793,1.778l2.55-1.466l-1.137,3.155l1.011,4.058l1.063,2.831l-1.869,3.029l0.483,4.56l-1.673,3.557
		l2.013,2.029l-2.666,1.979L123.273,857.608z"/>
	<path id="path14" fill="#FEFEE9" d="M169.806,680.014l-1.261,0.226l0.206,0.639l-0.976,1.002l-4.643-2.116l-0.466,1.428
		l0.482,1.164l6.808,3.206l2.344,2.566l0.394,0.413l3.132,0.214l2.38,3.994l-1.343,2.543l0.27,1.453l1.852,1.09l1.878,0.176
		l0.636,2.806l-0.563,1.214l-2.514,0.126l-1.198,1.302l-1.145-0.251l-1.369-2.829l-1.439-0.764l-1.906,0.45l-1.743,2.217
		l-1.789,0.149l-4.76-1.815l-11.959,3.744l-1.664-0.363l-1.242,2.854l-2.755,1.141l-2.397-0.588l-1.681,0.463l-6.521-2.479
		l-1.789,0.364l-1.628,1.803l-0.6,2.142l-3.497,1.44l-1.78-0.05l-4.73-2.73l-1.263,0.163l-0.446,0.928l1.002,1.577l-0.107,3.293
		l0.805,1.053l1.353,0.363l1.483-0.677l1.521,1.591l1.091,0.11l1.619,0.176l0.412,2.731l0.025,0.175l-1.226,2.129l-0.697,2.355
		l0.357,1.764l-0.241,3.193l9.966,7.209l13,5l8,5.5l9.5-5c0,0,12.5-2,15-3s7-1,10-1s7.5,2.5,7.5,2.5l-1,5.5c0,0,2,4,5,4.5s12,4,12,4
		l10.5,1.5c0,0,1-9.5,7-11s11.5-4.5,14-2.5s4.5,3.5,4.5,3.5s2.5-2,4.5-4.5s4.5-6.5,4.5-6.5s-1-5.5-3.5-7.5s-7-4.5-7-4.5l3-7l7,3
		l1.5-5.5c0,0,4.5-2,6,1.5s4.5,5,6.5,7.5s8.5,7.5,11.5,7.5s14,2,14,2s4-1.5,12.5,0.5s14.5,4,14.5,4s0-9,3-11.5s8-7,10-2.5
		s5,8.5,5,8.5s4-5,10-2.5s9,8,9,8s5-6.5,10-6.5s10.5-2,13-5s2-8.5,8-7s8-1.5,10-3.5s4.5-5.5,7.5-6.5s6.5-6.5,6.5-6.5
		s4.5-12.5,5-14.5s1.5-3.5,0-6s-5.5-6,1-7s10-5,12-8s7-16.5,7.5-18.5s2-1.5,5-1.5s6.5,3,6.5,3s0.5,9-0.5,11.5s-3,5-3,5
		s7.5,5.5,10,8.5s12.5,9.5,12.5,9.5s7,4.5,9,8s-2,6-2.5,9s-2.5,9,0.5,11.5s5,1.5,5.5-1s5-2.5,7.5-0.5s14,8.5,14,8.5l9,6l6,16.5
		c0,0,15.5-2.5,18.5-4s11-3.5,11-10.5s-1.5-14.5,3-15.5s12.5,6.5,15,9.5s5.5,6,8.5,5s7,1,7,1s3,2.5,5.5,1s15,1.5,15,5.5s8,8.5,8,8.5
		s7.5,6,9,9.5s9.5,11,12.5,6.5s5-7.5,7-4s9.5,1.5,9.5,1.5l4-11.5l9.5-5.5l14.5,6c0,0,11,2,13-2s4-6.5,6.5-7.5s5.5-4.5,5.5-4.5
		s-8.5-7-10.5-9.5s-10-8.5-10-14.5s-0.5-15.5-2-17.5s-7-8-3-9.5s7.5,0.5,6.5-5.5s1-9,8-7s7-7.5,12-3.5s8,2,10.5-1s-7-11-8.5-15
		s-4-9-4.5-11.5s0.5-3.5-3-4.5s-5-0.5-6.5,2.5s-4.5,6-4.5,6s1.5,2.5,2,4.5s-0.5,7-2,4.5s-3-4.5-5.5-8s-4-8-4-8l-5,2l-4-7.5
		c0,0,4-6,7.5-8.5s8-5.5,11.5-6s8.5-2,8.5-2s10-7.5,13-9.5s7.5-4.5,10-4.5s6-1,9-1s9-3.5,9-3.5s-3-6-1.5-8s4-7.5,7-5s12.5,3,12.5-3
		s1-7,1-7l5.5,5.5l5.5-7.5l15,8.5l5.5,5l8.5-8l12.5-2.5l-8.5-10.5c0,0,0-9,0-11s2.5-5,5.5-8.5s3.5-14,3.5-16s-0.5-11-0.5-11l-1-5.5
		c0,0,2.5-10.5,4-14.5s3-7,4-9s1.5-7,1.5-7s-2.5-4.5-5-6s-3.5-2.5-11-6s-12.5-7.5-14-10s-6.5-4-5-8.5s1-6.5-1-10s-4-4.5-0.5-5.5
		s4.5-2.5,2.5-4.5s-2.5-5.5,4-7.5s7.5-6.5,7.5-9.5s-2-6.5-2-6.5l12-7c0,0,7,2,12,1.5s11.5-1,10.5,2.5s0,4.5,4.5,3s7-5,8-7.5
		s3-7.5,3-7.5l-2-7c0,0,17.5-1,19.5-3.5s7-6,7-6s7-3,13.5-3s12.5-3.5,15-7s5-4.5,7.5-3s5.5,1.5,7-2s2-11,10.5-10.5s9-4.5,9-4.5
		l-4-11l-5.5-5l2-4c0,0,12.5,1,16-1.5s12-4.5,12-4.5s10.5,6.5,12.5,9.5s5,3,8.5,1.5s14.5,1,14.5,1l13.5-4.5l1-10l-7-7
		c0,0-1-5.5-3-12.5s-3-9.5-4.5-11.5s-2.5-6,0-7s5.5-3.5,6-5.5s-2.5-5.5,5.5-2.5s10.5,0.5,13.5-4s2-8.5,5.5-9.5s5.5-5.5,8-3
		s5.5,6,10.5,8s6-0.5,8,3s2,4,5.5,3.5s6.5-2,9,1.5s4,5.5,6,7s8.5,4,8.5,4l7.5,0.5l-2.751-2.118l-3.346-2.692l-1.744-1.052
		l-2.782-1.515l2.756-2.831l-0.054-0.714l-0.116-1.565l-2.961-3.594l0.107-0.451l1.073-4.334l-2.854-2.041l-0.215-6.312
		l-0.429-0.024l-2.818-5.66l-5.812,0.562l-2.712-2.655l-1.333-5.66l-6.727-6.613l-0.34-0.413l-1.243-1.478l-2.782-3.331
		l-1.476-1.766l-4.384-1.717l-1.153-1.627l-3.452-4.858l-4.062-1.692l-2.154,0.277l-2.317-5.41l1.637-3.832l0.564-3.57l1.511-0.225
		l2.37,1.391l3.033-0.438l1.673-2.681l0.018-3.531l0.036-5.247l0.957-1.491l-0.456-1.264l-2.943-2.455l-8.542-0.526l-3.783-1.064
		l-0.296-2.079l1.549-3.932l-3.087-3.606l-3.06,2.504l-1.729-1.147l-0.837-0.555l-1.924-6.626l-3.381-4.031l-1.521-3.094
		l-2.396-2.618l0.411-3.08l1.853-3.706l-0.27-2.393l-4.133-0.865l-1.234-5.759l1.469-2.705l4.704-1.365l2.7-3.544l-0.536-3.244
		l0.456-1.328l0.601-1.715l1.092-3.167l0.51-1.479l-0.224-3.206l-1.664-4.033l-3.721-0.638l-3.669-4.659l-0.43-0.038l-3.837-0.524
		l-3.444-4.86l-3.345-1.44l-7.576-0.877l-4.303-0.05l-3.257-1.228l-5.555,2.769l-8.041,1.377l-4.098,3.581l-6.047,0.363
		l-5.492,1.954l-1.548-0.325l-1.843-0.389l-3.112-1.84l-3.543-4.595l-4.524,2.992l-2.435-0.664l-8.022,6.349l-1.565,4.358
		l-6.029,0.263l-2.809,2.016l-1.207-1.416l-3.14,0.552l-1.315,0.225l-2.086,1.02l-2.449,1.197l-3.506-0.614l-1.181,1.69l-0.537,3.48
		l0.812,2.53l2.291,2.918l-2.183,3.995l0.25,4.771l-1.601,5.071l1.617,5.047l-0.812,4.596l-0.08,8.265l7.746,11.897l8.676,10.518
		l0.778,4.697l-0.151,0.813l-1.593,8.378l-6.565-3.331l-1.949-0.989l-2.692-2.667l-3.587-3.544l-0.688-0.69l-0.652,0.052l-5.921,0.5
		l-4.555-0.865l-5.742-4.256l-10.797-7.527l-6.619-2.229l-6.609-0.676l-7.935,0.076l-7.515,1.966l-7.611,5.572l-9.008,3.744
		l-5.562-1.952l-4.07-0.026l-3.819,1.14l-5.216-0.59l-5.286-3.068l-4.749-1.29l-3.704,1.041l-1.207,4.37l-1.387,0.588l-2.049,0.851
		l-0.098,0.064l-4.33,2.942l-2.845,1.09l-3.729-0.301l-1.243-0.689l-0.555-1.677l-10.896,3.244l-2.621,2.854l-4.5,1.94l0.233,3.52
		l2.388,5.184l-0.214,0.438l-3.167,6.513l-8.587,6.262l-1.574,1.364l-2.961,1.391l-3.462-1.204l-6.985,2.43l-1.728-1.539
		l-1.046-2.33l-2.2-4.858l0.241-4.421l-3.247,0.664l-4.231-0.939l-6.188-6.299l-14.053,2.492l-7.059-0.036l-2.79,0.176l-4.393-2.079
		l-0.026,0.512l-5.788,0.125l-4.383-0.112l-3.272,1.29l-4.115,2.993l-11.53,1.503l-4.213-1.328l-6.199-0.1l-0.554-0.464
		l-5.403-4.458l-5.671,0.038l-6.771-1.565l-6.889,2.779l-2.781-1.992l-4.724,0.189l-5.537,3.768l-1.297,0.151l-3.663-2.488
		l-1.408-0.956l-9.062,1.441l-5.447,4.195l-1.95,0.626l-2.505,2.98l-2.656,4.483l-1.172,1.74l-0.832,1.617l-1.387,2.454
		l-1.476,2.604l-0.939,1.667l-0.402,0.726l-1.378-2.542l-1.743-7.087l-0.395-1.604l-1.082-0.437l-3.435-1.391l-4.054,1.88
		l-1.689,0.863l-5.984,3.03l0.215,4.446l-2.263,0.514l-7.165-2.38l-2.771-0.125l-4.491,2.392l-0.93,3.77l-4.079,7.25l-4.143,4.059
		l-2.048,3.168l0.581,5.498l0.071,0.662l-1.889,1.465l-0.114,4.846l-2.496,5.46l-0.036,5.36l-1.387,2.43l-9.481,4.119l-3.112,0.389
		l-2.075-1.228l-4.775-0.612l-2.827,1.114l-2.264-1.754l-2.343,2.28l-2.576-2.079l-2.505,1.139l-0.197,0.263l-1.512,2.041
		l0.43,0.014l-0.51,4.207l-2.907,2.98l-1.853,5.598l-1.217,0.977l-4.239-0.489l-0.806,1.316l-0.17,3.706l-1.342,1.491l-5.225,2.467
		l-8.104-0.038l-4.571,2.091l-2.646-0.313l-1.889,1.778l-5.331,2.354l-1.823,2.918l0.188,3.106l2.89,6.938l-3.792,6.449l0.59,3.732
		l-6.279,2.229l-2.38-1.652l-1.261-5.309l-6.853-11.734l-0.582-0.64l-3.587-3.969l-3.748,2.843l-0.009,0.413l-4.15,2.316
		l-2.684,0.514l-7.37-4.734l-0.018,0.415l-2.881-1.166l-2.772-1.114l-3.077-2.905l1.69-2.316l-2.014-2.755l-2.335-0.4l-16.137,3.706
		l-6.718,0.163l-5.662,2.88l-6.484-0.45l-2.066-1.529l-8.193-2.992l-2.764-0.201l-4.634,2.055l-6.323,2.805l-2.022,0.024
		l-3.587-3.63l-10.537-0.389l-10.456,3.13l-2.425-3.594l-3.773-4.37l-6.333-10.33l-7.826-4.609l-4.464-0.363l-7.8-2.644l-4.24-0.562
		l-8.632,5.584l-2.666,0.014l-4.159-2.918l-1.154-0.664l-5.59-4.621l-14.776-7.613l-7.541-0.865l-10.556-0.351l-11.789,1.479
		l-7.567,3.054l-5.886,0.438l-8.498-4.396l-5.725-1.001l-11.388-0.865l0.055,1.441l1.681,4.282l-2.298,1.691l-2.434,2.705
		l0.697,2.905l0.43,1.778l0.77,2.492l-1.002,4.621l-4.455,6.048l0.438,6.299l-0.269,1.653l-2.085,1.892l-4.274,0.389l-4.839-2.003
		l-6.36-1.015l-4.938,1.29l-9.635,1.378l-3.604,2.88l-2.541,9.93l-2.987,3.632l-2.469,0.751l-10.027,4.157l-3.686,2.155l-5.851,6.95
		l-8.802,2.854l-7.461,0.313l-3.021,1.667l-0.297,2.779l2.29,5.223l0.351,2.893l-1.36,2.655l-5.931,3.13l-1.583,3.156l-3.614,3.832
		l-1.842,0.714l-4.821,1.879l-1.314,1.516l0.151,1.965l3.793,4.946l2.755,11.534l5.306,7.777l0.445,2.793l-3.479,6.511l0.68,2.179
		l3.256,1.429l3.848-1.127l3.032-2.079l2.595-5.197l4.929,2.105l-0.01,0.401l7.666-0.915l4.017,4.133l2.218,0.478l3.893-2.367
		l-0.019,0.626l7.146,2.053l3.023,1.954l2.611,8.228l1.261,0.551l4.269-0.913l2.11,0.023l4.785,0.075l4.49,2.306l4.724-1.718
		l5-0.475l4.169,2.291l2.745,3.694l-1.959,4.884l-0.536,7.014l-3.774,5.446l-3.479,2.793l-5.386,6.337l-11.45,7l-4.856,6.55
		l-10.197,4.458l-3.22,5.171l-2.165,1.692l-5.635,0.662l-2.272,1.792l0.322,3.419l4.187,5.171l-0.135,4.546l-1.717,4.483
		l-8.399,8.642l7.146,8.766l4.258,2.492l0.43-0.201l3.642,4.548l0.841,1.051l2.514,0.802l1.95-1.703l7.479-2.667l6.297-5.498
		l5.162,0.677l6.261-0.338l1.253-0.062l3.998-0.364l1.727,3.433l-0.582,2.253l0.797,0.39l0.742,0.377l0.197,0.774l0.366,1.504
		l-0.161,0.889l-0.241,1.313l-1.512,8.38l1.261,1.902l0.761,1.139l-0.902,1.179l-0.421,0.538l-0.688,0.551l-1.198,0.965
		l-3.963,3.168l-2.639,3.433l-1.529,5.109l-6.352,4.044l0.099,0.413l-1.233,2.344l-0.062,0.261l-2.344,9.569l-1.539,2.016
		l0.072,7.952l2.979,6.073l0.877,4.194l0.035,0.188l0.188,0.915l-0.562,1.327l2.182,3.53l0.733,1.189l3.909,3.118l4.776,2.205
		l2.97-0.151l1.529-0.074l4.249-0.213l0.536-0.026l3.587-0.175l2.505,0.689l3.311,2.064l-0.019,0.414l6.549,6.286l2.889,1.74
		l3.022,4.321l5.859,4.319l3.542,1.239l9.929,2.166l3.819,2.404l9.464,12.886l0.626,0.026l2.97,5.659l0.993,1.903l0.492,0.938
		l0.725,1.565l5.653,12.171l5.225,3.983l1.063,0.399l5.886,2.205l3.864,3.744l0.447,2.29l-0.6,2.243l-2.881,3.519l-4.419,3.781
		l-1.503,1.29l-3.515,7.627l-4.285,2.555l-5.395,2.142l-0.591,0.238l-2.844,1.139l-3.587,0.401l-6.673-0.727l-0.126-0.012
		l-7.469-2.606l-6.995-4.558l-5.556-0.075L169.806,680.014z"/>
</g>
<g id="Linien">
	
		<polyline id="polyline18" fill="none" stroke="#646464" stroke-width="3.9685" stroke-linejoin="round" stroke-miterlimit="3.8637" points="
		167.028,260.727 158.423,260.264 151.232,258.298 147.35,255.994 143.351,254.415 134.398,250.684 126.947,249.744 
		123.655,252.838 120.666,252.75 117.894,249.068 113.054,246.965 105.228,248.08 100.8,246.1 99.217,242.031 88.904,244.123 
		81.72,245.161 71.961,243.032 68.571,242.018 66.2,238.861 59.241,235.894 56.147,235.808 54.554,239.376 46.639,239.677 
		40.52,244.886 37.926,245.95 30.286,244.21 19.204,243.62 14.338,245.662 7.603,242.093 0.835,238.964 	"/>
	
		<polyline id="polyline20" fill="none" stroke="#646464" stroke-width="3.9685" stroke-linejoin="round" stroke-miterlimit="3.8637" points="
		1054.541,1.078 1053.198,2.718 1055.254,5.848 1055.45,10.82 1061.076,13.85 1066.096,14.677 1069.155,18.798 1064.817,22.241 
		1056.22,23.355 1053.725,24.47 1048.984,26.599 1047.463,33.235 1051.952,32.172 1055.584,32.711 1059.092,35.139 1064.441,38.847 
		1068.269,41.251 1066.668,45.697 1061.373,45.984 1056.436,47.224 1050.613,45.721 1048.358,43.931 1042.453,46.873 
		1039.52,45.559 1037.302,43.243 1034.08,43.155 1029.69,44.331 1025.101,43.63 1021.684,41.564 1017.436,42.24 1011.163,44.132 
		1005.287,43.354 1001.629,44.883 998.964,42.866 996.387,39.31 993.99,39.886 991.343,47.375 989.625,53.135 990.241,57.519 
		988.372,61.651 980.661,62.528 978.282,64.342 976.573,67.448 973.381,70.241 965.197,74.248 961.86,79.295 958.085,85.544 
		953.604,88.386 948.631,95.525 945.714,99.069 938.478,104.079 	"/>
	
		<polyline id="polyline22" fill="none" stroke="#646464" stroke-width="3.9685" stroke-linejoin="round" stroke-miterlimit="3.8637" points="
		170.042,679.568 172.736,678.829 178.29,678.904 185.285,683.462 192.754,686.068 192.879,686.08 199.552,686.806 203.14,686.404 
		205.984,685.266 206.573,685.027 211.968,682.886 216.252,680.332 219.768,672.705 221.271,671.415 225.69,667.634 228.57,664.115 
		229.169,661.872 228.722,659.582 224.858,655.838 218.972,653.633 217.907,653.232 212.684,649.249 207.031,637.078 
		206.306,635.512 205.814,634.572 204.821,632.67 201.851,627.01 201.225,626.983 191.761,614.098 187.942,611.693 178.013,609.527 
		174.471,608.288 168.612,603.968 165.588,599.646 162.699,597.906 156.152,591.62 156.169,591.205 152.86,589.141 150.355,588.451 
		146.768,588.626 146.232,588.652 141.983,588.865 140.452,588.939 137.484,589.09 132.706,586.886 128.797,583.768 
		128.064,582.578 125.882,579.047 126.446,577.72 126.257,576.805 126.222,576.617 125.345,572.422 122.366,566.348 
		122.294,558.396 123.833,556.381 126.177,546.812 126.24,546.551 127.474,544.208 127.375,543.795 133.727,539.75 135.256,534.641 
		137.895,531.209 141.858,528.041 143.056,527.076 143.744,526.525 144.165,525.987 145.069,524.809 144.308,523.671 
		143.047,521.768 144.559,513.389 144.8,512.074 144.961,511.186 144.595,509.682 144.398,508.906 143.656,508.529 142.859,508.142 
		143.441,505.889 141.714,502.455 137.716,502.82 136.463,502.883 130.202,503.221 125.04,502.543 118.743,508.041 111.266,510.709 
		109.316,512.412 106.802,511.609 105.961,510.559 102.321,506.013 101.891,506.213 97.633,503.722 90.487,494.956 98.886,486.314 
		100.603,481.83 100.738,477.285 96.551,472.114 96.229,468.695 98.501,466.903 104.136,466.241 106.301,464.549 109.521,459.378 
		119.719,454.92 124.575,448.369 136.026,441.37 141.41,435.033 144.89,432.24 148.664,426.793 149.201,419.78 151.16,414.896 
		148.414,411.202 144.245,408.911 139.245,409.386 134.523,411.103 130.032,408.798 125.246,408.723 123.136,408.698 
		118.868,409.611 117.608,409.061 114.995,400.834 111.972,398.88 104.825,396.827 104.843,396.2 100.951,398.566 98.734,398.091 
		94.717,393.958 87.051,394.873 87.061,394.472 82.132,392.367 79.537,397.564 76.505,399.644 72.659,400.77 69.404,399.342 
		68.723,397.164 72.202,390.653 71.756,387.86 66.451,380.083 63.697,368.549 59.904,363.603 59.751,361.637 61.067,360.122 
		65.888,358.242 67.73,357.528 71.344,353.697 72.927,350.541 78.858,347.411 80.218,344.756 79.868,341.863 77.578,336.64 
		77.874,333.861 80.897,332.195 88.358,331.881 97.159,329.027 103.009,322.077 106.695,319.922 116.722,315.766 119.191,315.014 
		122.178,311.382 124.719,301.452 128.323,298.572 137.957,297.194 142.895,295.904 149.255,296.919 154.094,298.922 
		158.369,298.534 160.454,296.642 160.722,294.989 160.283,288.69 164.739,282.642 165.74,278.021 164.971,275.528 164.541,273.75 
		163.844,270.846 166.278,268.141 168.575,266.45 166.895,262.168 166.84,260.727 	"/>
	
		<polyline id="polyline24" fill="none" stroke="#646464" stroke-width="3.9685" stroke-linejoin="round" stroke-miterlimit="3.8637" points="
		938.664,104.079 942.207,108.674 945.321,110.514 947.162,110.903 948.711,111.228 954.202,109.274 960.25,108.912 
		964.347,105.331 972.388,103.954 977.943,101.185 981.198,102.413 985.502,102.462 993.077,103.339 996.423,104.779 
		999.866,109.639 1003.703,110.164 1004.134,110.201 1007.802,114.86 1011.523,115.498 1013.187,119.531 1013.409,122.736 
		1012.901,124.216 1011.809,127.383 1011.209,129.098 1010.753,130.426 1011.288,133.669 1008.588,137.214 1003.884,138.579 
		1002.416,141.284 1003.651,147.043 1007.782,147.909 1008.052,150.301 1006.199,154.007 1005.788,157.087 1008.186,159.705 
		1009.706,162.798 1013.088,166.83 1015.011,173.456 1015.848,174.011 1017.577,175.158 1020.637,172.654 1023.724,176.261 
		1022.176,180.192 1022.471,182.271 1026.255,183.336 1034.797,183.862 1037.74,186.316 1038.197,187.58 1037.24,189.071 
		1037.202,194.318 1037.186,197.849 1035.513,200.53 1032.48,200.968 1030.11,199.577 1028.599,199.802 1028.033,203.373 
		1026.398,207.205 1028.715,212.615 1030.869,212.338 1034.932,214.03 1038.384,218.888 1039.537,220.515 1043.921,222.232 
		1045.397,223.998 1048.179,227.329 1049.422,228.806 1049.762,229.219 1056.489,235.832 1057.822,241.491 1060.531,244.146 
		1066.346,243.584 1069.163,249.244 1069.593,249.268 1069.808,255.58 1072.66,257.621 1071.588,261.955 1071.481,262.405 
		1074.442,266 1074.558,267.564 1074.612,268.278 1071.856,271.109 1074.638,272.624 1076.382,273.676 1079.728,276.368 
		1085.52,280.171 	"/>
	
		<polyline id="polyline26" fill="none" stroke="#646464" stroke-width="3.9685" stroke-linejoin="round" stroke-miterlimit="3.8637" points="
		167.028,260.727 178.228,261.592 183.952,262.593 192.45,266.988 198.335,266.55 205.904,263.496 217.693,262.017 228.247,262.367 
		235.788,263.232 250.566,270.846 256.156,275.467 257.31,276.131 261.469,279.049 264.135,279.035 272.767,273.451 
		277.007,274.013 284.807,276.657 289.271,277.02 297.097,281.629 303.43,291.959 307.204,296.329 309.629,299.923 320.085,296.793 
		330.621,297.182 334.209,300.812 336.232,300.789 342.555,297.983 347.189,295.929 349.952,296.13 358.147,299.122 
		360.213,300.651 366.698,301.101 372.36,298.221 379.076,298.058 395.214,294.352 397.549,294.752 399.562,297.507 397.87,299.824 
		400.948,302.729 403.721,303.843 406.602,305.009 406.618,304.594 413.99,309.329 416.673,308.814 420.823,306.498 
		420.831,306.085 424.579,303.243 428.166,307.212 428.748,307.852 435.601,319.585 436.862,324.895 439.24,326.547 
		445.521,324.318 444.931,320.586 448.723,314.137 445.834,307.2 445.647,304.094 447.471,301.175 452.802,298.821 454.69,297.043 
		457.337,297.356 461.907,295.265 470.012,295.303 475.236,292.836 476.576,291.345 476.746,287.639 477.553,286.323 
		481.791,286.812 483.009,285.835 484.861,280.237 487.768,277.257 488.278,273.05 487.848,273.037 489.36,270.996 489.557,270.732 
		492.062,269.594 494.638,271.673 496.981,269.393 499.243,271.146 502.072,270.032 506.847,270.645 508.923,271.873 
		512.034,271.484 521.517,267.365 522.904,264.935 522.94,259.574 525.436,254.114 525.551,249.268 527.439,247.803 
		527.366,247.141 526.785,241.643 528.834,238.475 532.976,234.416 537.055,227.166 537.985,223.396 542.476,221.004 
		545.247,221.129 552.412,223.509 554.676,222.995 554.461,218.549 560.446,215.52 562.136,214.656 566.189,212.776 
		569.622,214.167 570.704,214.604 571.099,216.209 572.843,223.296 574.221,225.838 574.622,225.112 575.563,223.446 
		577.037,220.842 578.425,218.388 579.257,216.771 580.429,215.031 583.085,210.547 585.59,207.567 587.539,206.941 
		592.988,202.747 602.049,201.306 603.456,202.262 607.119,204.75 608.416,204.599 613.953,200.831 618.678,200.642 
		621.459,202.633 628.347,199.854 635.117,201.419 640.788,201.381 646.193,205.839 646.745,206.303 652.946,206.403 
		657.157,207.73 668.689,206.228 672.804,203.235 676.076,201.945 680.46,202.057 686.247,201.932 686.275,201.419 690.666,203.499 
		693.456,203.323 700.515,203.359 714.568,200.867 720.757,207.167 724.989,208.105 728.236,207.442 727.993,211.863 
		730.195,216.722 731.24,219.052 732.967,220.591 739.952,218.161 743.414,219.365 746.375,217.974 747.949,216.61 756.536,210.348 
		759.703,203.835 759.918,203.397 757.531,198.213 757.297,194.693 761.797,192.753 764.418,189.898 775.313,186.655 
		775.866,188.332 777.111,189.021 780.841,189.322 783.685,188.232 788.015,185.29 788.113,185.226 790.16,184.375 791.548,183.786 
		792.755,179.417 796.459,178.376 801.207,179.666 806.493,182.734 811.71,183.324 815.53,182.184 819.6,182.209 825.162,184.161 
		834.171,180.417 841.781,174.845 849.297,172.879 857.231,172.804 863.841,173.48 870.46,175.708 881.257,183.236 886.998,187.492 
		891.553,188.357 897.474,187.857 898.127,187.805 898.816,188.495 902.403,192.04 905.095,194.707 907.045,195.696 
		913.611,199.027 915.202,190.648 915.355,189.835 914.575,185.138 905.901,174.62 898.155,162.723 898.235,154.458 
		899.048,149.862 897.43,144.815 899.031,139.744 898.781,134.973 900.963,130.978 898.672,128.06 897.859,125.529 898.396,122.049 
		899.575,120.358 903.081,120.972 905.531,119.775 907.616,118.755 908.933,118.53 912.073,117.978 913.28,119.394 916.088,117.378 
		922.116,117.115 923.683,112.757 931.705,106.408 934.14,107.071 938.478,104.079 	"/>
	<path id="path28" fill="none" stroke="#646464" stroke-width="3.9685" stroke-linejoin="round" stroke-miterlimit="3.8637" d="
		M1085.707,280.171c2.201,0.652,4.239,1.395,6.498,2.546c6.348,3.234,23.188,4.318,28.033,9.23c1.498,1.547-2.279,3.736-3.059,4.132
		c1.259,1.472,3.931,1.732,5.447,1.29l7.235,11.246c2.538,3.262,4.652,10.537,7.156,12.56c2.313-0.958,2.728-4.015,4.383-4.759
		l2.736,6.387l3.517,0.025c0.561,1.694,1.673,3.828,2.971,4.545l1.823-3.08l3.016,2.492l2.88-3.018
		c0.44-0.121,1.021-0.224,1.707-0.263"/>
	
		<polygon id="polygon30" fill="none" stroke="#0978AB" stroke-width="1.7008" stroke-linejoin="round" stroke-miterlimit="3.8637" points="
		114.021,618.631 109.118,617.442 104.037,615.226 103.278,612.62 101.346,610.604 101.793,609.689 105.765,610.43 104.432,612.758 
		105.031,613.91 114.262,617.705 	"/>
	
		<polygon id="polygon32" fill="none" stroke="#0978AB" stroke-width="1.7008" stroke-linejoin="round" stroke-miterlimit="3.8637" points="
		26.869,620.836 26.163,619.571 27.156,617.855 26.477,616.077 26.923,615.162 27.871,615.088 29.454,618.531 28.757,620.686 	"/>
	
		<polygon id="polygon34" fill="none" stroke="#0978AB" stroke-width="1.7008" stroke-linejoin="round" stroke-miterlimit="3.8637" points="
		36.566,626.884 37.443,625.67 39.652,625.519 41.361,631.867 40.807,632.982 39.026,632.932 35.735,630.466 35.448,629.426 	"/>
	
		<polygon id="polygon36" fill="none" stroke="#0978AB" stroke-width="1.7008" stroke-linejoin="round" stroke-miterlimit="3.8637" points="
		74.376,626.972 75.744,627.635 77.418,628.524 77.713,629.15 77.909,629.79 77.659,630.929 76.881,631.844 75.772,633.471 
		75.244,633.358 75.056,632.631 75.531,630.867 75.557,630.139 74.958,628.863 74.135,627.898 	"/>
	
		<polygon id="polygon38" fill="none" stroke="#0978AB" stroke-width="1.7008" stroke-linejoin="round" stroke-miterlimit="3.8637" points="
		68.052,632.52 67.82,632.82 66.71,634.148 65.316,634.523 65.449,633.695 65.574,633.07 66.335,632.569 66.791,631.643 
		67.551,631.042 68.097,631.256 68.392,631.379 68.375,632.107 	"/>
	
		<polygon id="polygon40" fill="none" stroke="#0978AB" stroke-width="1.7008" stroke-linejoin="round" stroke-miterlimit="3.8637" points="
		49.483,634.26 50.44,634.497 51.021,636.189 54.904,637.968 55.476,640.07 54.6,640.872 52.98,638.33 49.519,636.764 	"/>
	
		<polyline id="polyline42" fill="none" stroke="#0978AB" stroke-width="1.7008" stroke-linejoin="round" stroke-miterlimit="3.8637" points="
		431.132,857.592 431.307,855.15 433.347,853.699 432.9,851.921 429.044,847.112 428.954,845.709 430.279,845.096 432.9,849.541 
		434.698,851.281 435.717,844.707 432.855,840.975 433.633,839.771 435.081,840.035 438.453,836.768 441.263,839.372 
		444.072,839.498 445.081,837.783 449.33,840.75 451.693,843.881 447.918,842.027 446.539,842.592 450.146,848.326 453.464,855.703 
		454.909,857.596 	"/>
	<path id="path44" fill="none" stroke="#0978AB" stroke-width="1.7008" stroke-linejoin="round" stroke-miterlimit="3.8637" d="
		M468.807,857.598l-2.471-3.085l-7.988-5.622l-2.495-2.38l-0.761-4.058l-2.54-1.566l-5.771-6.234l-2.415,0.413l-0.276-3.22
		l-4.5-6.897l1.859-4.259c0.511-3.081,0.556-3.183,0.556-3.183l-8.587-6.561l-2.3-0.69l5.563,7.339l0.135,4.133l-2.326,0.627
		l-5.34-1.892l-7.646-4.145l-5.226-4.758l-2.737-4.36l-10.822-5.51l-2.567-1.039l-6.324-1.089l-9.569-3.183l-8.042-2.504
		l-3.703-1.479l-7.335-4.332l-2.37,1.664l-3.562,5.438l-2.8,2.252l-1.046,3.582l-4.008,5.209l-2.755,6.388l-7.192,28.641
		l-3.363,8.741l-0.59,4.145l-0.029,3.423"/>
	
		<polyline id="polyline46" fill="none" stroke="#0978AB" stroke-width="1.7008" stroke-linejoin="round" stroke-miterlimit="3.8637" points="
		0.75,625.594 3.174,623.078 5.786,623.564 15.259,622.689 15.751,623.828 14.893,624.529 8.058,624.968 0.689,627.357 	"/>
	<path id="path48" fill="none" stroke="#646464" stroke-width="3.9685" stroke-linejoin="round" stroke-miterlimit="3.8637" d="
		M126.513,729.277l9.966,7.209l13,5l8,5.5l9.5-5c0,0,12.5-2,15-3s7-1,10-1s7.5,2.5,7.5,2.5l-1,5.5c0,0,2,4,5,4.5s12,4,12,4l10.5,1.5
		c0,0,1-9.5,7-11s11.5-4.5,14-2.5s4.5,3.5,4.5,3.5s2.5-2,4.5-4.5s4.5-6.5,4.5-6.5s-1-5.5-3.5-7.5s-7-4.5-7-4.5l3-7l7,3l1.5-5.5
		c0,0,4.5-2,6,1.5s4.5,5,6.5,7.5s8.5,7.5,11.5,7.5s14,2,14,2s4-1.5,12.5,0.5s14.5,4,14.5,4s0-9,3-11.5s8-7,10-2.5s5,8.5,5,8.5
		s4-5,10-2.5s9,8,9,8s5-6.5,10-6.5s10.5-2,13-5s2-8.5,8-7s8-1.5,10-3.5s4.5-5.5,7.5-6.5s6.5-6.5,6.5-6.5s4.5-12.5,5-14.5
		s1.5-3.5,0-6s-5.5-6,1-7s10-5,12-8s7-16.5,7.5-18.5s2-1.5,5-1.5s6.5,3,6.5,3s0.5,9-0.5,11.5s-3,5-3,5s7.5,5.5,10,8.5
		s12.5,9.5,12.5,9.5s7,4.5,9,8s-2,6-2.5,9s-2.5,9,0.5,11.5s5,1.5,5.5-1s5-2.5,7.5-0.5s14,8.5,14,8.5l9,6l6,16.5c0,0,15.5-2.5,18.5-4
		s11-3.5,11-10.5s-1.5-14.5,3-15.5s12.5,6.5,15,9.5s5.5,6,8.5,5s7,1,7,1s3,2.5,5.5,1s15,1.5,15,5.5s8,8.5,8,8.5s7.5,6,9,9.5
		s9.5,11,12.5,6.5s5-7.5,7-4s9.5,1.5,9.5,1.5l4-11.5l9.5-5.5l14.5,6c0,0,11,2,13-2s4-6.5,6.5-7.5s5.5-4.5,5.5-4.5s-8.5-7-10.5-9.5
		s-10-8.5-10-14.5s-0.5-15.5-2-17.5s-7-8-3-9.5s7.5,0.5,6.5-5.5s1-9,8-7s7-7.5,12-3.5s8,2,10.5-1s-7-11-8.5-15s-4-9-4.5-11.5
		s0.5-3.5-3-4.5s-5-0.5-6.5,2.5s-4.5,6-4.5,6s1.5,2.5,2,4.5s-0.5,7-2,4.5s-3-4.5-5.5-8s-4-8-4-8l-5,2l-4-7.5c0,0,4-6,7.5-8.5
		s8-5.5,11.5-6s8.5-2,8.5-2s10-7.5,13-9.5s7.5-4.5,10-4.5s6-1,9-1s9-3.5,9-3.5s-3-6-1.5-8s4-7.5,7-5s12.5,3,12.5-3s1-7,1-7l5.5,5.5
		l5.5-7.5l15,8.5l5.5,5l8.5-8l12.5-2.5l-8.5-10.5c0,0,0-9,0-11s2.5-5,5.5-8.5s3.5-14,3.5-16s-0.5-11-0.5-11l-1-5.5
		c0,0,2.5-10.5,4-14.5s3-7,4-9s1.5-7,1.5-7s-2.5-4.5-5-6s-3.5-2.5-11-6s-12.5-7.5-14-10s-6.5-4-5-8.5s1-6.5-1-10s-4-4.5-0.5-5.5
		s4.5-2.5,2.5-4.5s-2.5-5.5,4-7.5s7.5-6.5,7.5-9.5s-2-6.5-2-6.5l12-7c0,0,7,2,12,1.5s11.5-1,10.5,2.5s0,4.5,4.5,3s7-5,8-7.5
		c1-2.5,3-7.5,3-7.5l-2-7c0,0,17.5-1,19.5-3.5s7-6,7-6s7-3,13.5-3s12.5-3.5,15-7s5-4.5,7.5-3s5.5,1.5,7-2s2-11,10.5-10.5
		s9-4.5,9-4.5l-4-11l-5.5-5l2-4c0,0,12.5,1,16-1.5s12-4.5,12-4.5s10.5,6.5,12.5,9.5s5,3,8.5,1.5s14.5,1,14.5,1l13.5-4.5l1-10l-7-7
		c0,0-1-5.5-3-12.5s-3-9.5-4.5-11.5s-2.5-6,0-7s5.5-3.5,6-5.5s-2.5-5.5,5.5-2.5s10.5,0.5,13.5-4s2-8.5,5.5-9.5s5.5-5.5,8-3
		s5.5,6,10.5,8s6-0.5,8,3s2,4,5.5,3.5s6.5-2,9,1.5s4,5.5,6,7s8.5,4,8.5,4l7.5,0.5"/>
	<path id="path50" fill="none" stroke="#646464" stroke-width="3.9685" stroke-linejoin="round" stroke-miterlimit="3.8637" d="
		M1060.59,857.609c1.128-2.196,2.508-4.521,3.889-5.623c2.5-2,10.5-4.5,10.5-4.5s2.5,4.5,8,3.5s10-4.5,10-4.5s8.5,4.5,10.5,7
		c0.929,1.16,4.336,2.752,7.721,4.125"/>
	<path id="path52" fill="none" stroke="#646464" stroke-width="3.9685" stroke-linejoin="round" stroke-miterlimit="3.8637" d="
		M839.714,857.611c0.708-0.717,1.33-1.302,1.765-1.625c2-1.5,7,0.5,7,0.5l2.5-2l-1.5-3l4.5-3l4.5,3l5-1.5l6.5,1.5l1.5-5h7l2.5,3
		c0,0-2.5,4,1,4s6-1,8.5-2.5s6.5-6,10-3.5s8.5,5,8.5,5l2.76,5.125"/>
	
		<polyline id="polyline54" fill="none" stroke="#0978AB" stroke-width="1.7008" stroke-linejoin="round" stroke-miterlimit="3.8637" points="
		123.225,858.054 123.033,857.688 125.145,856.824 127.81,854.846 125.797,852.816 127.47,849.26 126.987,844.701 128.857,841.671 
		127.792,838.84 126.781,834.783 127.917,831.627 125.368,833.093 121.575,831.314 121.361,828.01 123.606,826.117 125.1,821.722 
		128.284,823.275 128.517,819.154 125.18,819.355 120.028,813.933 122.228,812.73 125.037,813.77 128.24,811.403 131.039,808.698 
		119.625,806.694 116.486,807.107 115.752,803.776 111.243,801.271 111.763,797.879 111.682,793.846 111.405,789.199 
		113.623,788.436 111.396,786.096 110.86,783.289 109.383,780.358 107.495,774.011 110.331,773.259 108.445,770.215 
		102.943,762.301 105.278,757.63 103.587,751.482 101.297,747.7 102.362,744.406 100.591,740.135 99.857,733.311 95.654,730.594 
		95.742,727.613 99.624,720.398 123.865,731.469 126.45,729.277 126.754,726.084 126.397,724.32 127.094,721.965 128.32,719.836 
		128.293,719.661 127.881,716.93 126.262,716.754 125.171,716.643 123.651,715.053 122.166,715.729 120.815,715.365 120.01,714.312 
		120.117,711.02 119.115,709.442 119.563,708.516 120.824,708.352 125.556,711.083 127.336,711.133 130.833,709.691 
		131.433,707.551 133.061,705.748 134.85,705.384 141.37,707.863 143.052,707.4 145.449,707.988 148.204,706.849 149.448,703.994 
		151.112,704.357 163.071,700.613 167.829,702.43 169.618,702.279 171.363,700.062 173.269,699.612 174.708,700.376 
		176.077,703.205 177.222,703.456 178.42,702.154 180.934,702.028 181.497,700.814 180.863,698.01 178.984,697.834 177.133,696.744 
		176.865,695.291 178.206,692.748 175.826,688.754 172.696,688.54 172.302,688.127 169.958,685.561 163.152,682.354 
		162.668,681.189 163.134,679.763 167.777,681.879 168.751,680.877 168.545,680.238 169.806,680.014 167.732,676.92 170.54,674.439 
		172.597,672.536 176.121,673.79 180.523,674.127 185.531,674.516 188.367,677.508 191.481,675.342 195.488,674.753 196.838,671.91 
		191.275,672.136 188.484,668.017 187.168,663.434 183.519,662.794 181.247,661.58 178.51,662.004 176.301,658.938 179.172,654.804 
		181.703,654.467 181.873,649.32 179.753,643.771 177.983,640.628 175.781,637.762 170.469,632.525 168.053,632.652 164.44,627.58 
		156.183,618.301 153.097,614.832 149.823,611.839 146.112,609.684 142.954,607.066 138.687,602.196 131.469,600.83 
		129.107,599.104 123.543,595.521 121.012,595.76 117.595,594.006 112.819,588.796 109.785,591.703 112.335,594.043 
		105.609,600.855 105.626,607.055 101.566,609.195 97.835,604.137 94.74,602.183 84.632,599.09 81.466,595.909 83.765,600.105 
		87.083,601.645 95.107,603.736 97.353,605.979 98.31,609.096 101.834,614.268 98.211,615.695 103.319,617.197 105.376,618.4 
		112.782,620.166 109.071,621.506 104.955,625.4 93.747,630.572 90.564,632.188 87.951,630.697 80.983,626.027 78.916,624.925 
		75.983,624.737 70.41,621.482 68.379,620.918 65.374,621.23 62.27,622.997 61.349,629.371 62.288,636.721 62.512,640.14 
		65.007,640.829 67.306,637.697 69.936,637.561 71.957,638.712 74.632,638.162 77.172,635.219 79.856,634.254 81.976,631.299 
		84.15,629.596 87.719,630.949 86.842,633.941 77.817,640.691 71.359,642.669 69.319,640.54 64.399,643.81 59.194,642.318 
		58.281,633.93 56.581,630.785 56.895,627.279 59.031,626.051 59.149,622.195 54.149,616.885 50.382,616.473 47.341,616.171 
		43.745,613.393 40.301,612.577 38.047,610.447 25.452,609.885 22.528,609.396 19.281,608.795 16.848,609.348 14.021,608.959 
		9.969,607.506 7.285,601.557 3.716,601.557 1.49,602.232 0.683,601.145 	"/>
</g>
</svg>
